<?xml version="1.0" encoding="UTF-8" ?>
<!DOCTYPE svg PUBLIC "-//W3C//DTD SVG 1.1//EN" "http://www.w3.org/Graphics/SVG/1.1/DTD/svg11.dtd">
<svg width="512pt" height="512pt" viewBox="0 0 512 512" version="1.1" xmlns="http://www.w3.org/2000/svg">
<g id="#ffffffff">
<path fill="#ffffff" opacity="1.00" d=" M 0.00 0.00 L 0.51 0.00 C 0.38 0.13 0.13 0.38 0.00 0.51 L 0.00 0.00 Z" />
<path fill="#ffffff" opacity="1.00" d=" M 119.44 0.00 L 396.45 0.00 C 419.47 4.51 442.90 11.43 461.45 26.46 C 490.98 47.99 508.91 83.48 512.00 119.58 L 512.00 396.57 C 506.89 442.79 475.96 485.39 432.37 502.41 C 420.72 507.91 407.84 509.21 395.43 512.00 L 115.43 512.00 C 69.21 506.89 26.61 475.96 9.59 432.37 C 4.09 420.72 2.78 407.84 0.00 395.43 L 0.00 115.55 C 3.74 98.63 7.40 81.47 16.24 66.31 C 36.30 28.75 76.84 3.16 119.44 0.00 M 299.40 93.52 C 275.34 95.71 253.88 111.02 241.04 131.04 C 218.75 165.32 222.68 215.07 251.73 244.27 C 259.65 255.19 252.04 270.39 255.72 282.32 C 269.42 293.33 283.46 303.95 297.03 315.14 C 322.07 290.14 345.51 263.49 369.40 237.36 C 385.25 217.10 392.21 189.95 387.36 164.63 C 381.23 123.60 342.10 87.77 299.40 93.52 M 188.34 225.45 C 172.38 231.34 156.66 237.85 140.68 243.67 C 137.46 244.52 136.78 248.03 135.71 250.69 C 117.80 301.12 99.81 351.52 82.03 402.00 C 108.67 394.54 136.00 388.54 162.24 380.26 C 165.71 364.93 168.62 349.00 170.84 333.30 C 158.03 327.02 144.57 322.01 132.21 314.83 C 128.44 310.75 131.72 300.52 138.64 303.38 C 150.34 307.85 161.02 314.81 172.83 319.00 C 179.56 289.14 183.73 258.73 189.66 228.70 C 189.78 227.21 190.98 223.69 188.34 225.45 M 203.18 225.04 C 197.06 254.81 192.32 285.00 186.94 314.96 C 204.08 305.42 220.18 294.10 237.03 284.04 C 238.35 282.38 242.64 282.00 242.00 279.01 C 242.01 266.74 242.13 254.47 241.89 242.21 C 229.36 235.91 216.31 230.09 203.18 225.04 M 364.29 263.35 C 350.22 278.54 335.73 293.59 322.26 309.28 C 324.81 333.10 330.44 356.94 334.28 380.76 C 360.66 388.53 387.60 394.47 414.08 401.99 C 398.08 355.56 381.56 309.13 364.88 262.90 L 364.29 263.35 M 240.96 298.19 C 221.57 309.33 202.91 321.90 184.20 334.18 C 180.86 349.49 177.20 365.12 176.08 380.77 C 197.98 387.33 219.97 393.67 241.94 400.00 C 242.03 365.94 242.08 331.88 241.90 297.82 L 240.96 298.19 M 255.03 299.89 C 255.01 333.29 254.92 366.70 255.07 400.11 C 277.07 394.06 299.23 387.88 320.88 380.86 C 317.52 361.19 313.52 341.62 310.84 321.85 C 306.55 325.56 302.80 329.86 298.81 333.88 C 284.14 322.67 270.07 310.55 255.03 299.89 Z" />
<path fill="#ffffff" opacity="1.00" d=" M 299.40 107.52 C 336.07 101.76 370.04 133.02 374.53 168.38 C 378.12 190.01 372.37 213.27 357.95 229.97 C 341.59 248.57 324.19 266.21 307.82 284.80 C 292.46 270.20 278.56 252.88 263.37 237.63 C 250.65 224.48 241.01 207.59 239.86 189.02 C 234.54 152.24 261.29 111.53 299.40 107.52 M 300.39 139.48 C 278.83 143.18 264.86 168.24 270.13 188.91 C 273.12 209.92 295.59 227.04 316.62 220.56 C 332.84 216.55 344.06 200.89 345.61 184.63 C 349.35 159.75 326.17 133.69 300.39 139.48 Z" />
</g>
<g id="#354151fe">
<path fill="#354151" opacity="1.00" d=" M 299.40 93.52 C 342.10 87.77 381.23 123.60 387.36 164.63 C 392.21 189.95 385.25 217.10 369.40 237.36 C 345.51 263.49 322.07 290.14 297.03 315.14 C 283.46 303.95 269.42 293.33 255.72 282.32 C 252.04 270.39 259.65 255.19 251.73 244.27 C 222.68 215.07 218.75 165.32 241.04 131.04 C 253.88 111.02 275.34 95.71 299.40 93.52 M 299.40 107.52 C 261.29 111.53 234.54 152.24 239.86 189.02 C 241.01 207.59 250.65 224.48 263.37 237.63 C 278.56 252.88 292.46 270.20 307.82 284.80 C 324.19 266.21 341.59 248.57 357.95 229.97 C 372.37 213.27 378.12 190.01 374.53 168.38 C 370.04 133.02 336.07 101.76 299.40 107.52 Z" />
<path fill="#354151" opacity="1.00" d=" M 300.39 139.48 C 326.17 133.69 349.35 159.75 345.61 184.63 C 344.06 200.89 332.84 216.55 316.62 220.56 C 295.59 227.04 273.12 209.92 270.13 188.91 C 264.86 168.24 278.83 143.18 300.39 139.48 Z" />
<path fill="#354151" opacity="1.00" d=" M 188.34 225.45 C 190.98 223.69 189.78 227.21 189.66 228.70 C 183.73 258.73 179.56 289.14 172.83 319.00 C 161.02 314.81 150.34 307.85 138.64 303.38 C 131.72 300.52 128.44 310.75 132.21 314.83 C 144.57 322.01 158.03 327.02 170.84 333.30 C 168.62 349.00 165.71 364.93 162.24 380.26 C 136.00 388.54 108.67 394.54 82.03 402.00 C 99.81 351.52 117.80 301.12 135.71 250.69 C 136.78 248.03 137.46 244.52 140.68 243.67 C 156.66 237.85 172.38 231.34 188.34 225.45 Z" />
<path fill="#354151" opacity="1.00" d=" M 203.18 225.04 C 216.31 230.09 229.36 235.91 241.89 242.21 C 242.13 254.47 242.01 266.74 242.00 279.01 C 242.64 282.00 238.35 282.38 237.03 284.04 C 220.18 294.10 204.08 305.42 186.94 314.96 C 192.32 285.00 197.06 254.81 203.18 225.04 Z" />
<path fill="#354151" opacity="1.00" d=" M 364.29 263.35 L 364.88 262.90 C 381.56 309.13 398.08 355.56 414.08 401.99 C 387.60 394.47 360.66 388.53 334.28 380.76 C 330.44 356.94 324.81 333.10 322.26 309.28 C 335.73 293.59 350.22 278.54 364.29 263.35 Z" />
<path fill="#354151" opacity="1.00" d=" M 240.96 298.19 L 241.90 297.82 C 242.08 331.88 242.03 365.94 241.94 400.00 C 219.97 393.67 197.98 387.33 176.08 380.77 C 177.20 365.12 180.86 349.49 184.20 334.18 C 202.91 321.90 221.57 309.33 240.96 298.19 Z" />
<path fill="#354151" opacity="1.00" d=" M 255.03 299.89 C 270.07 310.55 284.14 322.67 298.81 333.88 C 302.80 329.86 306.55 325.56 310.84 321.85 C 313.52 341.62 317.52 361.19 320.88 380.86 C 299.23 387.88 277.07 394.06 255.07 400.11 C 254.92 366.70 255.01 333.29 255.03 299.89 Z" />
</g>
</svg>
