<?xml version="1.0" encoding="UTF-8" ?>
<!DOCTYPE svg PUBLIC "-//W3C//DTD SVG 1.1//EN" "http://www.w3.org/Graphics/SVG/1.1/DTD/svg11.dtd">
<svg width="337pt" height="570pt" viewBox="0 0 337 570" version="1.1" xmlns="http://www.w3.org/2000/svg">
<g id="#010101ff">
</g>
<g id="#fefefeff">
<path fill="#fefefe" opacity="1.00" d=" M 166.30 34.31 C 170.55 32.66 175.49 34.16 177.91 38.06 C 207.78 88.56 237.82 138.97 267.41 189.64 C 272.78 198.93 278.71 207.92 283.33 217.62 C 287.47 225.84 291.89 234.58 291.29 244.05 C 290.88 251.07 284.88 258.19 277.33 256.73 C 262.96 252.68 250.07 244.73 235.92 240.03 C 214.99 231.74 192.42 228.24 170.00 227.63 C 148.91 228.22 127.73 231.43 107.84 238.63 C 92.90 243.30 79.32 251.36 64.47 256.24 C 59.30 258.15 52.76 255.48 50.66 250.31 C 46.78 243.23 49.19 234.81 51.89 227.76 C 56.51 217.17 62.04 206.98 68.16 197.18 C 98.26 145.68 128.69 94.38 159.14 43.09 C 160.98 39.80 162.80 36.10 166.30 34.31 M 165.46 76.51 C 161.14 84.39 156.35 91.99 151.68 99.66 C 146.23 109.46 140.40 119.03 134.68 128.66 C 119.48 155.09 104.18 181.47 88.70 207.74 C 86.55 211.59 83.58 214.95 81.76 218.99 C 81.46 221.46 84.20 221.79 85.93 221.02 C 93.56 218.30 100.92 214.75 108.82 212.83 C 115.18 211.22 121.55 209.66 127.87 207.89 C 150.73 202.18 174.79 200.91 198.04 204.96 C 208.80 206.29 219.05 209.99 229.58 212.41 C 237.78 214.21 245.35 217.94 253.21 220.76 C 254.77 221.45 256.47 221.24 258.11 221.06 C 258.49 217.46 255.67 214.84 254.00 211.98 C 250.02 205.59 246.07 199.18 242.44 192.58 C 220.66 155.66 199.60 118.31 177.40 81.64 C 175.00 77.57 172.96 73.26 170.00 69.54 C 168.29 71.72 166.77 74.06 165.46 76.51 Z" />
<path fill="#fefefe" opacity="1.00" d=" M 151.49 254.95 C 168.99 253.67 186.81 253.49 204.06 257.20 C 231.32 262.97 256.80 276.81 276.54 296.49 C 293.71 313.66 306.14 335.33 313.41 358.45 C 317.29 371.60 319.91 385.24 319.78 398.99 C 321.35 441.96 301.66 484.35 269.99 512.99 C 242.00 538.39 203.57 551.09 166.00 549.73 C 133.58 548.88 101.34 537.42 76.23 516.74 C 50.26 494.62 31.18 463.95 24.80 430.27 C 21.58 416.77 21.93 402.83 22.47 389.07 C 25.30 359.23 37.09 330.28 55.98 306.99 C 79.44 278.07 114.56 259.24 151.49 254.95 M 154.41 286.41 C 133.59 288.80 113.47 297.07 96.91 309.90 C 81.77 321.39 70.09 337.09 62.38 354.40 C 53.40 373.52 50.49 395.10 52.40 416.04 C 55.41 439.33 65.12 461.74 80.46 479.57 C 96.06 498.43 118.19 511.54 141.99 516.98 C 179.65 526.00 222.00 516.17 250.33 489.33 C 272.99 467.84 287.59 437.39 288.11 405.99 C 289.17 369.33 272.14 332.49 243.21 309.87 C 231.81 301.36 219.11 294.50 205.43 290.50 C 188.99 285.41 171.44 284.58 154.41 286.41 Z" />
</g>
<g id="#4da0e9ff">
<path fill="#4da0e9" opacity="1.00" d=" M 165.46 76.51 C 166.77 74.06 168.29 71.72 170.00 69.54 C 172.96 73.26 175.00 77.57 177.40 81.64 C 199.60 118.31 220.66 155.66 242.44 192.58 C 246.07 199.18 250.02 205.59 254.00 211.98 C 255.67 214.84 258.49 217.46 258.11 221.06 C 256.47 221.24 254.77 221.45 253.21 220.76 C 245.35 217.94 237.78 214.21 229.58 212.41 C 219.05 209.99 208.80 206.29 198.04 204.96 C 174.79 200.91 150.73 202.18 127.87 207.89 C 121.55 209.66 115.18 211.22 108.82 212.83 C 100.92 214.75 93.56 218.30 85.93 221.02 C 84.20 221.79 81.46 221.46 81.76 218.99 C 83.58 214.95 86.55 211.59 88.70 207.74 C 104.18 181.47 119.48 155.09 134.68 128.66 C 140.40 119.03 146.23 109.46 151.68 99.66 C 156.35 91.99 161.14 84.39 165.46 76.51 Z" />
<path fill="#4da0e9" opacity="1.00" d=" M 154.41 286.41 C 171.44 284.58 188.99 285.41 205.43 290.50 C 219.11 294.50 231.81 301.36 243.21 309.87 C 272.14 332.49 289.17 369.33 288.11 405.99 C 287.59 437.39 272.99 467.84 250.33 489.33 C 222.00 516.17 179.65 526.00 141.99 516.98 C 118.19 511.54 96.06 498.43 80.46 479.57 C 65.12 461.74 55.41 439.33 52.40 416.04 C 50.49 395.10 53.40 373.52 62.38 354.40 C 70.09 337.09 81.77 321.39 96.91 309.90 C 113.47 297.07 133.59 288.80 154.41 286.41 Z" />
</g>
</svg>
